<?xml version="1.0" encoding="utf-8"?>
<!-- Generator: Adobe Illustrator 22.1.0, SVG Export Plug-In . SVG Version: 6.00 Build 0)  -->
<svg version="1.1" id="Слой_1" xmlns="http://www.w3.org/2000/svg" xmlns:xlink="http://www.w3.org/1999/xlink" x="0px" y="0px"
	 viewBox="0 0 256 256" style="enable-background:new 0 0 256 256;" xml:space="preserve">
<style type="text/css">
	.st0{fill:#FFFFFF;}
</style>
<g id="surface1">
	<path class="st0" d="M240.1,122.8C240.1,122.8,240.1,122.8,240.1,122.8c1.5,0,2.8-0.6,3.8-1.6c1-1.1,1.5-2.5,1.3-3.9
		c-5.1-56.5-49.9-101.3-106.4-106.5c-1.4-0.1-2.9,0.4-3.9,1.3c-1.1,1-1.7,2.4-1.6,3.8C134.1,91.1,144,121.8,240.1,122.8z
		 M240.1,133.2c-96.1,1.1-106,31.8-106.9,106.9c0,1.4,0.6,2.8,1.6,3.8c0.9,0.9,2.2,1.4,3.5,1.4c0.2,0,0.3,0,0.5,0
		c56.5-5.1,101.3-49.9,106.4-106.5c0.1-1.4-0.4-2.9-1.3-3.9S241.5,133.2,240.1,133.2z M116.9,10.8c-56.4,5.3-101,50.1-106.1,106.5
		c-0.1,1.4,0.4,2.9,1.3,3.9c1,1.1,2.3,1.6,3.8,1.6c0,0,0,0,0.1,0c95.8-1.1,105.6-31.8,106.5-106.9c0-1.4-0.6-2.8-1.6-3.8
		C119.7,11.1,118.3,10.6,116.9,10.8z M15.9,133.2c-1.6-0.2-2.8,0.6-3.8,1.6c-1,1.1-1.5,2.5-1.3,3.9c5.1,56.4,49.7,101.2,106.1,106.5
		c0.2,0,0.3,0,0.5,0c1.3,0,2.5-0.5,3.5-1.4c1.1-1,1.7-2.4,1.6-3.8C121.6,165,111.7,134.3,15.9,133.2z"/>
</g>
</svg>
