<?xml version="1.0" encoding="utf-8"?>
<!-- Generator: Adobe Illustrator 21.0.0, SVG Export Plug-In . SVG Version: 6.00 Build 0)  -->
<svg version="1.1" id="Layer_1" xmlns="http://www.w3.org/2000/svg" xmlns:xlink="http://www.w3.org/1999/xlink" x="0px" y="0px"
	 viewBox="0 0 136.6 128.3" style="enable-background:new 0 0 136.6 128.3;" xml:space="preserve">
<style type="text/css">
	.st0{fill:#FFFFFF;}
</style>
<g>
	<path class="st0" d="M129.4,65.6c-0.2,7.5-0.3,16.6-0.7,25.7c-0.3,7.1-2.2,13.9-6.5,19.8c-5.3,7.3-12.5,11.5-21.3,12.8
		c-5.3,0.8-10.7,1.1-16,1.1c-11.2,0.2-22.5,0.1-33.7,0c-6-0.1-12-0.1-17.9-1.5c-8.7-2.1-15.7-6.7-20.4-14.4
		C10,104.4,8.3,99.2,8,93.7c-0.5-8-0.7-16.1-0.7-24.2c-0.1-10,0.1-19.9,0.3-29.9c0.1-4.9,0.7-9.7,2.4-14.4C13.8,14.7,21.2,8,32,5
		c4.2-1.2,8.4-1.6,12.7-1.7c15.9-0.1,31.7-0.1,47.6,0c6,0,11.8,1,17.3,3.5c9.2,4.2,15,11.3,17.7,21.1c1.1,3.8,1.5,7.8,1.6,11.7
		C129.1,47.8,129.2,55.9,129.4,65.6z M118.4,64.1c-0.1,0-0.1,0-0.2,0c0-4.5,0.1-8.9,0-13.4c-0.1-6,0.1-11.9-1-17.8
		c-1.7-9-6.9-15-15.9-17.4c-3.9-1-7.8-1.2-11.8-1.3c-11.8-0.1-23.6-0.2-35.4-0.2c-5.7,0-11.4,0-17,1c-9,1.7-15.1,6.9-17.3,16
		c-0.8,3.5-1.2,7.1-1.2,10.7c-0.1,14.7-0.1,29.5,0,44.2c0,3.4,0.4,6.9,1.1,10.3c1.8,8.5,7.1,13.9,15.5,16.2c3.8,1,7.7,1.2,11.6,1.3
		c11.8,0.1,23.6,0.2,35.4,0.2c5.8,0,11.6,0,17.3-1c6.8-1.3,12.1-4.7,15.4-10.9c2-3.9,2.8-8.1,3-12.4C118,81.1,118.2,72.6,118.4,64.1
		z"/>
	<path class="st0" d="M68.1,32.7C85.4,32.7,99.5,46.6,99.5,64c0.1,17.3-13.9,31.4-31.2,31.4c-17.3,0-31.4-13.9-31.4-31.1
		C36.8,46.8,50.8,32.8,68.1,32.7z M88.5,64.1c0-11.2-9-20.3-20.2-20.3c-11.3,0-20.4,9-20.4,20.3c0,11.3,9.1,20.3,20.3,20.3
		C79.4,84.3,88.5,75.3,88.5,64.1z"/>
	<path class="st0" d="M100.7,38.8c-3.9,0-7.2-3.3-7.3-7.3c0-4.1,3.3-7.4,7.4-7.4c3.9,0,7.2,3.3,7.3,7.3
		C108.1,35.5,104.8,38.8,100.7,38.8z"/>
</g>
</svg>
