<svg width="17" height="71" viewBox="0 0 17 71" fill="none" xmlns="http://www.w3.org/2000/svg">
<path d="M14.7801 0.351995H15.7801V-0.648005H14.7801V0.351995ZM14.3001 36.448L13.3063 36.3363L13.3052 36.3474L14.3001 36.448ZM13.0521 45.328V46.328H13.8906L14.0368 45.5024L13.0521 45.328ZM4.12408 45.328L3.1394 45.5024L3.28561 46.328H4.12408V45.328ZM2.82808 36.448L1.8331 36.5486L1.83434 36.5597L2.82808 36.448ZM2.39608 0.351995V-0.648005H1.39608V0.351995H2.39608ZM1.19608 60.064L0.278527 59.6664L0.275233 59.674L0.272065 59.6816L1.19608 60.064ZM2.87608 57.616L3.56656 58.3394L3.57497 58.3313L3.58319 58.3231L2.87608 57.616ZM5.32408 55.984L5.70644 56.908L5.71409 56.9048L5.72169 56.9016L5.32408 55.984ZM11.4681 55.984L11.059 56.8965L11.0777 56.9049L11.0967 56.9125L11.4681 55.984ZM13.9641 57.616L13.257 58.3231L13.2652 58.3313L13.2736 58.3394L13.9641 57.616ZM15.6441 60.064L14.7265 60.4616L14.7316 60.4731L15.6441 60.064ZM15.6441 66.064L14.7316 65.6549L15.6441 66.064ZM13.9641 68.512L14.6546 69.2354L14.663 69.2273L14.6712 69.2191L13.9641 68.512ZM11.4681 70.096L11.0967 69.1675L11.0857 69.172L11.4681 70.096ZM5.32408 70.096L4.9417 71.0201L4.95269 71.0245L5.32408 70.096ZM2.87608 68.512L2.16898 69.2191L2.1772 69.2273L2.18561 69.2354L2.87608 68.512ZM1.19608 66.064L0.272066 66.4464L0.277625 66.4598L0.283573 66.4731L1.19608 66.064ZM13.7801 0.351995V27.808H15.7801V0.351995H13.7801ZM13.7801 27.808C13.7801 30.6833 13.6221 33.526 13.3063 36.3363L15.2938 36.5597C15.6181 33.674 15.7801 30.7567 15.7801 27.808H13.7801ZM13.3052 36.3474C13.0199 39.1686 12.6075 42.1039 12.0674 45.1536L14.0368 45.5024C14.5847 42.4081 15.0043 39.4234 15.295 36.5486L13.3052 36.3474ZM13.0521 44.328H4.12408V46.328H13.0521V44.328ZM5.10876 45.1536C4.56813 42.1006 4.13927 39.1616 3.82183 36.3363L1.83434 36.5597C2.15689 39.4304 2.59204 42.4114 3.1394 45.5024L5.10876 45.1536ZM3.82301 36.3474C3.53845 33.5334 3.39608 30.687 3.39608 27.808H1.39608C1.39608 30.753 1.54172 33.6666 1.83316 36.5486L3.82301 36.3474ZM3.39608 27.808V0.351995H1.39608V27.808H3.39608ZM2.39608 1.352H14.7801V-0.648005H2.39608V1.352ZM1.62008 63.04C1.62008 62.1083 1.78882 61.2469 2.1201 60.4464L0.272065 59.6816C-0.164658 60.7371 -0.379917 61.8597 -0.379917 63.04H1.62008ZM2.11364 60.4616C2.48051 59.615 2.96634 58.9123 3.56656 58.3394L2.18561 56.8926C1.37782 57.6637 0.743651 58.593 0.278527 59.6664L2.11364 60.4616ZM3.58319 58.3231C4.19341 57.7129 4.8988 57.2422 5.70644 56.908L4.94173 55.06C3.89337 55.4938 2.96675 56.1111 2.16898 56.9089L3.58319 58.3231ZM5.72169 56.9016C6.54752 56.5437 7.45109 56.36 8.44408 56.36V54.36C7.19708 54.36 6.02065 54.5923 4.92648 55.0664L5.72169 56.9016ZM8.44408 56.36C9.40109 56.36 10.2685 56.5421 11.059 56.8965L11.8771 55.0715C10.8117 54.5939 9.66307 54.36 8.44408 54.36V56.36ZM11.0967 56.9125C11.9359 57.2482 12.6524 57.7186 13.257 58.3231L14.6712 56.9089C13.8677 56.1054 12.9203 55.4878 11.8395 55.0555L11.0967 56.9125ZM13.2736 58.3394C13.8738 58.9123 14.3597 59.615 14.7265 60.4616L16.5616 59.6664C16.0965 58.593 15.4623 57.6637 14.6546 56.8926L13.2736 58.3394ZM14.7316 60.4731C15.0877 61.2674 15.2681 62.1195 15.2681 63.04H17.2681C17.2681 61.8485 17.0325 60.7166 16.5566 59.6549L14.7316 60.4731ZM15.2681 63.04C15.2681 63.997 15.0859 64.8644 14.7316 65.6549L16.5566 66.4731C17.0342 65.4076 17.2681 64.259 17.2681 63.04H15.2681ZM14.7316 65.6549C14.3643 66.4744 13.8731 67.1888 13.257 67.8049L14.6712 69.2191C15.4631 68.4272 16.0919 67.5096 16.5566 66.4731L14.7316 65.6549ZM13.2736 67.7886C12.6676 68.3671 11.9457 68.8279 11.0967 69.1675L11.8395 71.0245C12.9105 70.5961 13.8526 70.0009 14.6546 69.2354L13.2736 67.7886ZM11.0857 69.172C10.2887 69.5018 9.4119 69.672 8.44408 69.672V71.672C9.65226 71.672 10.7914 71.4582 11.8504 71.02L11.0857 69.172ZM8.44408 69.672C7.44065 69.672 6.52785 69.5005 5.69547 69.1675L4.95269 71.0245C6.04032 71.4595 7.20752 71.672 8.44408 71.672V69.672ZM5.70643 69.172C4.88895 68.8337 4.17828 68.3726 3.56656 67.7886L2.18561 69.2354C2.98189 69.9954 3.90322 70.5903 4.94173 71.02L5.70643 69.172ZM3.58319 67.8049C2.96708 67.1888 2.47591 66.4744 2.10859 65.6549L0.283573 66.4731C0.748251 67.5096 1.37708 68.4272 2.16898 69.2191L3.58319 67.8049ZM2.1201 65.6816C1.79031 64.8847 1.62008 64.0078 1.62008 63.04H-0.379917C-0.379917 64.2482 -0.166148 65.3873 0.272066 66.4464L2.1201 65.6816Z" fill="#85B911"/>
</svg>
