<?xml version="1.0" encoding="utf-8"?>
<!-- Generator: Adobe Illustrator 22.1.0, SVG Export Plug-In . SVG Version: 6.00 Build 0)  -->
<svg version="1.1" id="Слой_1" xmlns="http://www.w3.org/2000/svg" xmlns:xlink="http://www.w3.org/1999/xlink" x="0px" y="0px"
	 viewBox="0 0 256 256" style="enable-background:new 0 0 256 256;" xml:space="preserve">
<style type="text/css">
	.st0{fill:#FFFFFF;}
</style>
<g id="surface1">
	<path class="st0" d="M236.2,33.5c-3.8-3.3-9.9-3.7-16.1-1.2h0c-6.6,2.6-185.7,79.5-192.9,82.6c-1.3,0.5-12.9,4.8-11.7,14.4
		C16.5,138,25.8,141.6,27,142l45.5,15.6c3,10.1,14.2,47.2,16.6,55.1c1.5,4.9,4,11.4,8.4,12.8c3.9,1.5,7.7,0.1,10.2-1.8l27.8-25.8
		l44.9,35l1.1,0.6c3.1,1.4,6,2,8.8,2c2.2,0,4.2-0.4,6.2-1.2c6.7-2.8,9.4-9.2,9.7-9.9l33.6-174.5C241.8,40.6,239,35.9,236.2,33.5z
		 M112.6,163.8l-15.4,41l-15.4-51.2l117.8-87L112.6,163.8z"/>
</g>
</svg>
