<?xml version="1.0" encoding="utf-8"?>
<!-- Generator: Adobe Illustrator 22.1.0, SVG Export Plug-In . SVG Version: 6.00 Build 0)  -->
<svg version="1.1" id="Слой_1" xmlns="http://www.w3.org/2000/svg" xmlns:xlink="http://www.w3.org/1999/xlink" x="0px" y="0px"
	 viewBox="0 0 256 256" style="enable-background:new 0 0 256 256;" xml:space="preserve">
<style type="text/css">
	.st0{fill:#FFFFFF;}
</style>
<g id="surface1">
	<path class="st0" d="M116,85.3l1.3,49.9c-0.1,5.7-4.7,10.4-10.4,10.5c-5.7,0.1-10.6-4.3-10.9-10l-1.6-60.8c-0.1-2.9,1-5.7,3-7.7
		s4.8-3.2,7.6-3.2h38.8c5.9,0,10.7,4.8,10.7,10.7s-4.8,10.7-10.7,10.7H116z M152.8,189.9c0,5-3.5,9.3-8.3,10.4
		c-32.5,7.4-53.7-2.1-77.7-31C52.5,152,37.7,121.8,22,78.3c-1.2-3.3-0.7-6.9,1.3-9.7c2-2.8,5.3-4.5,8.7-4.5h38.4
		c4.7,0,8.9,3.1,10.2,7.6L85.2,87c1.2,3.7,0.3,7.7-2.3,10.6s-6.6,4-10.4,3.1c-3.8-0.9-6.7-3.8-7.7-7.6l-2.3-7.7H47.4
		c12.9,33.7,25,57.2,35.8,70.3c17.1,20.6,29.6,27.7,48.9,25.3c3-21.7,17.1-30.9,37.9-20.9c1.4,0.7,2.6,1.6,3.6,2.8l13.7,16.5h20.7
		c-3.1-6.4-5.8-11-8.2-13.7c-0.6-0.7-1.3-1.4-2-2.1l-2.3-2.4c-13.2-13.9-17.5-24.7-7.2-38.9c10.4-14.2,17.6-26.5,21.7-36.7h-20.6
		c-15.7,36.4-28.6,56-42.1,60.3c-3.2,1-6.8,0.5-9.6-1.5s-4.4-5.2-4.4-8.6V112c0-5.3,3.8-9.7,9-10.6s10.2,2.3,11.8,7.3
		c5.3-9.1,11.5-21.9,18.3-38.1c1.7-4,5.5-6.6,9.8-6.6H224c3.1,0,6.1,1.4,8.1,3.7c2,2.4,2.9,5.5,2.4,8.6c-2.5,16-12.3,35.3-29.1,58.3
		c-2,2.8-1.4,4.4,5.4,11.6l2.3,2.5c1,1,1.7,1.9,2.5,2.7c6,6.8,11.9,18.3,18.3,34.6c1.3,3.3,0.8,7-1.2,9.9c-2,2.9-5.3,4.6-8.8,4.6
		h-41.8c-3.2,0-6.2-1.4-8.2-3.8l-15.4-18.5C153.2,175.8,152.8,177.4,152.8,189.9z"/>
</g>
</svg>
